# xmcd
#
# Track frame offsets:
#	150
#	15207
#	27636
#	41335
#	55679
#	70231
#	84121
#	100359
#	117058
#	131698
#	145154
#	160317
#	174377
#	190776
#	203922
#	217920
#	231370
#	245086
#	258486
#	272514
#	285811
#	298995
#	312533
#	325960
#	338817
#
# Disc length: 4668 seconds
#
# Revision: 1
# Processed by: cddbd v1.5.2PL0 Copyright (c) Steve Scherf et al.
# Submitted via: audiograbber 1.83.01
#
DISCID=6a123a19
DTITLE=Wolgang Hohlbein - Sturm CD 6
DYEAR=2007
DGENRE=Hörbuch
TTITLE0=124
TTITLE1=125
TTITLE2=126
TTITLE3=127
TTITLE4=128
TTITLE5=129
TTITLE6=130
TTITLE7=131
TTITLE8=132
TTITLE9=133
TTITLE10=134
TTITLE11=135
TTITLE12=136
TTITLE13=137
TTITLE14=138
TTITLE15=139
TTITLE16=140
TTITLE17=141
TTITLE18=142
TTITLE19=143
TTITLE20=144
TTITLE21=145
TTITLE22=146
TTITLE23=147
TTITLE24=148
EXTD=
EXTT0=
EXTT1=
EXTT2=
EXTT3=
EXTT4=
EXTT5=
EXTT6=
EXTT7=
EXTT8=
EXTT9=
EXTT10=
EXTT11=
EXTT12=
EXTT13=
EXTT14=
EXTT15=
EXTT16=
EXTT17=
EXTT18=
EXTT19=
EXTT20=
EXTT21=
EXTT22=
EXTT23=
EXTT24=
PLAYORDER=
